Coordinates
version=1
nRows=8
nColumns=40
inDegrees=yes

Units are S.I. units (second, meters, Newtons, ...)
Angles are in degrees.

endheader
time	pelvis_tilt	pelvis_list	pelvis_rotation	pelvis_tx	pelvis_ty	pelvis_tz	hip_flexion_r	hip_adduction_r	hip_rotation_r	knee_angle_r	knee_angle_r_beta	ankle_angle_r	subtalar_angle_r	mtp_angle_r	hip_flexion_l	hip_adduction_l	hip_rotation_l	knee_angle_l	knee_angle_l_beta	ankle_angle_l	subtalar_angle_l	mtp_angle_l	lumbar_extension	lumbar_bending	lumbar_rotation	arm_flex_r	arm_add_r	arm_rot_r	elbow_flex_r	pro_sup_r	wrist_flex_r	wrist_dev_r	arm_flex_l	arm_add_l	arm_rot_l	elbow_flex_l	pro_sup_l	wrist_flex_l	wrist_dev_l
     18.27000000	     -6.08570444	     -4.35546562	      0.35601458	      1.03701447	      0.92974638	      0.43732923	     29.29242304	     -3.17342391	     -9.20766026	     29.73450740	     29.73450740	      7.21471851	     -7.27976292	      0.98655865	      7.57459695	     -4.56960582	     -7.79535128	     16.76213030	     16.76213030	     17.54080204	     -2.82433940	     -0.90932178	    -10.62000216	      3.55459736	      2.21351296	    -12.50677974	    -12.29772616	     -4.59854885	     32.92687078	     45.83649209	      0.00000000	      0.00000000	     23.97494952	    -13.25260783	     -2.43993675	     52.48191524	     45.57675049	      0.00000000	      0.00000000
     18.28271429	     -6.20774182	     -4.11258622	      0.56975121	      1.03723563	      0.92874795	      0.43802127	     28.53216323	     -3.14212645	     -9.65265907	     26.68252841	     26.68252841	      6.98530901	     -5.69689852	      1.42249711	      7.16205841	     -4.35967152	     -7.84049150	     16.41371976	     16.41371976	     17.77094459	     -2.31028411	     -1.14278548	    -10.48668552	      3.36845842	      2.22993875	    -12.33273274	    -12.48192255	     -4.48686644	     33.08226212	     45.82540984	      0.00000000	      0.00000000	     24.02203410	    -13.00904027	     -1.88340399	     52.88163441	     45.54613246	      0.00000000	      0.00000000
     18.29542857	     -6.31140888	     -3.82262799	      0.79801402	      1.03770871	      0.92765505	      0.43879843	     27.79561147	     -3.16884020	    -10.11214425	     24.05060487	     24.05060487	      6.69046684	     -4.18495908	      1.89075066	      6.70517374	     -4.10431112	     -7.90506721	     16.05274862	     16.05274862	     18.00017319	     -1.80174182	     -1.37306434	    -10.33671180	      3.13864546	      2.21904693	    -12.07850801	    -12.69780796	     -4.38691006	     33.29612401	     45.81345779	      0.00000000	      0.00000000	     23.99176822	    -12.79459851	     -1.28962194	     53.22283221	     45.51240094	      0.00000000	      0.00000000
     18.30814286	     -6.40889901	     -3.54749118	      1.04519668	      1.03838662	      0.92653526	      0.43972037	     27.11450016	     -3.19367727	    -10.54716699	     21.88405301	     21.88405301	      6.30321979	     -2.87973573	      2.34378946	      6.22115821	     -3.86925243	     -7.91572453	     15.67959406	     15.67959406	     18.23511052	     -1.33069940	     -1.56463694	    -10.15434700	      2.93872346	      2.20249462	    -11.74989837	    -12.94213872	     -4.32166380	     33.54412881	     45.80291279	      0.00000000	      0.00000000	     23.86112439	    -12.57893070	     -0.73835851	     53.45593850	     45.47960223	      0.00000000	      0.00000000
     18.32085714	     -6.46783033	     -3.29301224	      1.30467933	      1.03926266	      0.92543252	      0.44077172	     26.51500083	     -3.23527134	    -10.95263014	     20.30353233	     20.30353233	      5.90372087	     -1.82832989	      2.63717180	      5.68619339	     -3.66514574	     -7.87930999	     15.31916583	     15.31916583	     18.50176464	     -0.89136214	     -1.72166650	     -9.95820250	      2.73107871	      2.18473442	    -11.32601810	    -13.22597776	     -4.28650354	     33.83104969	     45.79353109	      0.00000000	      0.00000000	     23.64586528	    -12.37221488	     -0.21297640	     53.59543765	     45.44747615	      0.00000000	      0.00000000
     18.33357143	     -6.57414160	     -3.05561693	      1.54756122	      1.04020726	      0.92430275	      0.44200397	     26.10555965	     -3.28200375	    -11.21381188	     19.30040166	     19.30040166	      5.52650742	     -1.18202333	      2.75498783	      5.24780712	     -3.49263987	     -7.80835787	     15.04590544	     15.04590544	     18.74621687	     -0.56263944	     -1.80646548	     -9.69944372	      2.55219278	      2.21131429	    -10.81453868	    -13.50364762	     -4.29494896	     34.11558601	     45.78741420	      0.00000000	      0.00000000	     23.36696563	    -12.16235334	      0.16146895	     53.60418126	     45.42253175	      0.00000000	      0.00000000
     18.34628571	     -6.64094374	     -2.86348819	      1.83816360	      1.04116041	      0.92319301	      0.44329641	     25.91750327	     -3.36228359	    -11.35309727	     19.09391339	     19.09391339	      5.35405834	     -1.08651440	      2.76201739	      4.89636000	     -3.38839089	     -7.59828318	     15.00705589	     15.00705589	     19.05939763	     -0.39416836	     -1.92053376	     -9.50412445	      2.43202550	      2.32071539	    -10.24401678	    -13.82852442	     -4.34498512	     34.33607801	     45.78657222	      0.00000000	      0.00000000	     23.04867292	    -11.76294455	      0.36862080	     53.54155894	     45.40399511	      0.00000000	      0.00000000
     18.35900000	     -6.63533748	     -2.78890384	      2.10201800	      1.04231256	      0.92248428	      0.44479353	     25.57963859	     -3.33202342	    -11.54774982	     19.01192753	     19.01192753	      5.19932388	     -0.97468150	      2.60753690	      4.44397463	     -3.43389057	     -7.46029719	     14.94059939	     14.94059939	     19.27384982	     -0.23727183	     -1.92508632	     -9.33294820	      2.45243283	      2.35722732	     -9.53632609	    -14.21090878	     -4.42069750	     34.63084053	     45.78548060	      0.00000000	      0.00000000	     22.59731660	    -11.41493081	      0.60714208	     53.36652567	     45.38172083	      0.00000000	      0.00000000
